<svg xmlns="http://www.w3.org/2000/svg" version="1.1" xmlns:xlink="http://www.w3.org/1999/xlink" xmlns:svgjs="http://svgjs.com/svgjs" width="200" height="200" preserveAspectRatio="none" viewBox="0 0 200 200"><g mask="url(&quot;#SvgjsMask1077&quot;)" fill="none"><use xlink:href="#SvgjsPath1078" x="30" y="30" stroke="rgba(124, 124, 123, 0.6666666666666666)"></use><use xlink:href="#SvgjsPath1079" x="30" y="90" stroke="rgba(124, 124, 123, 0.6666666666666666)"></use><use xlink:href="#SvgjsPath1079" x="30" y="150" stroke="rgba(124, 124, 123, 0.6666666666666666)"></use><use xlink:href="#SvgjsPath1080" x="30" y="210" stroke="rgba(124, 124, 123, 0.6666666666666666)"></use><use xlink:href="#SvgjsPath1078" x="90" y="30" stroke="rgba(124, 124, 123, 0.6666666666666666)"></use><use xlink:href="#SvgjsPath1081" x="90" y="90" stroke="rgba(124, 124, 123, 0.6666666666666666)"></use><use xlink:href="#SvgjsPath1078" x="90" y="150" stroke="rgba(124, 124, 123, 0.6666666666666666)"></use><use xlink:href="#SvgjsPath1079" x="90" y="210" stroke="rgba(124, 124, 123, 0.6666666666666666)"></use><use xlink:href="#SvgjsPath1080" x="150" y="30" stroke="rgba(124, 124, 123, 0.6666666666666666)"></use><use xlink:href="#SvgjsPath1079" x="150" y="90" stroke="rgba(124, 124, 123, 0.6666666666666666)"></use><use xlink:href="#SvgjsPath1080" x="150" y="150" stroke="rgba(124, 124, 123, 0.6666666666666666)"></use><use xlink:href="#SvgjsPath1082" x="150" y="210" stroke="rgba(124, 124, 123, 0.6666666666666666)"></use><use xlink:href="#SvgjsPath1078" x="210" y="30" stroke="rgba(124, 124, 123, 0.6666666666666666)"></use><use xlink:href="#SvgjsPath1081" x="210" y="90" stroke="rgba(124, 124, 123, 0.6666666666666666)"></use><use xlink:href="#SvgjsPath1082" x="210" y="150" stroke="rgba(124, 124, 123, 0.6666666666666666)"></use><use xlink:href="#SvgjsPath1078" x="210" y="210" stroke="rgba(124, 124, 123, 0.6666666666666666)"></use></g><defs><mask id="SvgjsMask1077"><rect width="200" height="200" fill="#ffffff"></rect></mask><path d="M-1 0 a1 1 0 1 0 2 0 a1 1 0 1 0 -2 0z" id="SvgjsPath1080"></path><path d="M-3 0 a3 3 0 1 0 6 0 a3 3 0 1 0 -6 0z" id="SvgjsPath1081"></path><path d="M-5 0 a5 5 0 1 0 10 0 a5 5 0 1 0 -10 0z" id="SvgjsPath1079"></path><path d="M2 -2 L-2 2z" id="SvgjsPath1082"></path><path d="M6 -6 L-6 6z" id="SvgjsPath1078"></path><path d="M30 -30 L-30 30z"></path></defs></svg>